PathFileType	4	(X/Y/Z)	E:\Qualisys_Data\Carbon_Farble_Plate\Data\Amateur_Runner\S2\T2\S2T2V12_c3d.trc
DataRate	CameraRate	NumFrames	NumMarkers	Units	OrigDataRate	OrigDataStartFrame	OrigNumFrames
200.000000	200.000000	4	39	mm	200.000000	0	331
Frame#	Time	LSHO			RSHO			LICST			RICST			LASIS			LHEEL			RASIS			LTROC			RTROC			SACR			LTH1			LSK4			LTH2			LTH3			RHM5			LSK2			LTH4			RTH1			LTOE			RTH2			RTH3			RTH4			LLEP			RLEP			LSK1			LSK3			RSK1			LHM5			RSK2			LFT1			RSK3			RSK4			LLME			RLME			RTOE			RHEEL			RFT1			RFT2			LFT2			
		X1	Y1	Z1	X2	Y2	Z2	X3	Y3	Z3	X4	Y4	Z4	X5	Y5	Z5	X6	Y6	Z6	X7	Y7	Z7	X8	Y8	Z8	X9	Y9	Z9	X10	Y10	Z10	X11	Y11	Z11	X12	Y12	Z12	X13	Y13	Z13	X14	Y14	Z14	X15	Y15	Z15	X16	Y16	Z16	X17	Y17	Z17	X18	Y18	Z18	X19	Y19	Z19	X20	Y20	Z20	X21	Y21	Z21	X22	Y22	Z22	X23	Y23	Z23	X24	Y24	Z24	X25	Y25	Z25	X26	Y26	Z26	X27	Y27	Z27	X28	Y28	Z28	X29	Y29	Z29	X30	Y30	Z30	X31	Y31	Z31	X32	Y32	Z32	X33	Y33	Z33	X34	Y34	Z34	X35	Y35	Z35	X36	Y36	Z36	X37	Y37	Z37	X38	Y38	Z38	X39	Y39	Z39	

1	0	-2219.989990234375	1537.772338867188	-524.6849365234375	-2271.6435546875	1523.673828125	-230.652587890625	-2263.719970703125	1066.465698242188	-516.6475830078125	-2260.237548828125	1063.2158203125	-220.1508483886719	-2214.044921875	1012.385925292969	-502.8311462402344	-2721.255615234375	338.0210876464844	-428.299072265625	-2204.32470703125	1014.751831054688	-249.3446807861328	-2362.719482421875	964.4254150390625	-517.645751953125	-2333.646240234375	960.6435546875	-203.1165618896484	-2358.969970703125	1108.207885742188	-372.8789978027344	-2325.561767578125	719.7506713867188	-526.4425048828125	-2618.7509765625	444.8798522949219	-507.5886535644531	-2404.103759765625	747.3408813476562	-524.789306640625	-2360.705078125	624.2532958984375	-509.6564331054688	-2031.640014648438	130.8553009033203	-214.6992950439453	-2554.44921875	520.2594604492188	-518.290771484375	-2438.71240234375	655.4913330078125	-501.3839416503906	-2142.596435546875	732.4127807617188	-210.0291595458984	-2679.933349609375	90.72296905517578	-439.4208374023438	-2216.097900390625	710.2595825195312	-209.4109497070312	-2113.71826171875	637.5418701171875	-228.4854736328125	-2191.5205078125	617.9913940429688	-223.7268218994141	-2429.51025390625	586.60009765625	-505.991455078125	-2153.218505859375	575.7742919921875	-224.7470855712891	-2495.2021484375	469.6899719238281	-515.5386352539062	-2560.216552734375	392.8581848144531	-511.4308166503906	-2119.91259765625	453.3808898925781	-216.0491485595703	-2717.509765625	137.4597930908203	-491.1078796386719	-2200.734619140625	453.3121948242188	-213.4403533935547	-2741.456787109375	323.0115051269531	-399.0284729003906	-2119.064453125	352.3934936523438	-225.6348876953125	-2199.625244140625	354.3885498046875	-224.9164276123047	-2705.069091796875	280.6916198730469	-488.0973205566406	-2152.7412109375	159.9970245361328	-253.8480682373047	-1960.360107421875	169.1155548095703	-264.1151733398438	-2204.743408203125	136.4166870117188	-316.503173828125	-2177.162353515625	112.3392944335938	-344.9031372070312	-2194.70458984375	104.4593276977539	-291.8455505371094	-2758.44091796875	325.0439453125	-451.9516296386719
2	0.005	-2204.24462890625	1537.579711914062	-523.6317749023438	-2256.43017578125	1523.4501953125	-230.0133819580078	-2247.076904296875	1066.446166992188	-516.5820922851562	-2244.40087890625	1061.970458984375	-220.2532043457031	-2199.37255859375	1013.082397460938	-503.8016662597656	-2711.0009765625	343.26318359375	-428.3631591796875	-2187.113525390625	1013.434936523438	-248.3011779785156	-2346.086181640625	963.84912109375	-518.263916015625	-2317.12939453125	958.8521728515624	-203.41064453125	-2343.214599609375	1107.526611328125	-372.4468994140625	-2307.762939453125	719.4635620117188	-526.2696533203125	-2604.887939453125	448.8833923339844	-508.4194946289062	-2386.523193359375	747.1012573242188	-524.563720703125	-2342.772216796875	623.6741333007812	-509.2158813476562	-2004.384155273438	133.3867950439453	-215.0765838623047	-2538.849365234375	522.3297119140625	-519.1016235351562	-2421.140869140625	654.828125	-501.6058959960938	-2128.405517578125	729.8704223632812	-208.9066314697266	-2670.88671875	96.35826873779295	-441.3968200683594	-2202.860107421875	708.2188720703125	-208.7484893798828	-2100.1923828125	634.535888671875	-228.5229034423828	-2178.1474609375	615.7512817382812	-223.9849700927734	-2412.2236328125	585.9761352539062	-506.3507080078125	-2139.2587890625	573.8751220703125	-225.2402496337891	-2480.62646484375	469.6336364746094	-516.3876953125	-2547.6328125	395.20458984375	-511.8578491210938	-2103.93994140625	453.1675720214844	-217.5043792724609	-2709.453125	143.4836730957031	-492.28515625	-2183.490478515625	450.1317443847656	-213.3351287841797	-2731.37548828125	328.6207885742188	-398.9552917480469	-2098.94580078125	351.2747497558594	-226.1754913330078	-2179.57568359375	351.3333435058594	-224.574951171875	-2695.1591796875	286.253173828125	-488.0425415039062	-2125.95166015625	158.5396575927734	-253.6952819824219	-1934.597290039062	174.1803588867188	-264.5106201171875	-2177.554443359375	132.9048614501953	-317.0666198730469	-2149.0576171875	110.2190704345703	-345.4320983886719	-2166.0087890625	100.4404296875	-292.2115173339844	-2748.325927734375	331.0758972167969	-451.6505432128906
3	0.01	-2187.9931640625	1536.98486328125	-522.5230102539062	-2240.68798828125	1522.633422851562	-229.3636932373047	-2230.866455078125	1066.167602539062	-516.4759521484375	-2229.04443359375	1061.044921875	-219.8134613037109	-2182.221923828125	1012.299560546875	-503.0918579101562	-2699.660400390625	348.2044677734375	-427.5018615722656	-2171.520751953125	1011.796875	-248.6015930175781	-2330.03564453125	963.1617431640624	-519.0457153320312	-2302.460693359375	956.6400756835938	-203.9544219970703	-2327.842529296875	1107.08642578125	-372.4924621582031	-2289.5947265625	718.3453979492188	-524.971923828125	-2591.171142578125	452.75048828125	-509.2697448730469	-2368.55615234375	745.70751953125	-525.2079467773438	-2324.251953125	622.6405639648438	-508.9035339355469	-1979.633056640625	135.7631530761719	-216.1299896240234	-2522.707763671875	524.4711303710938	-519.973876953125	-2402.347412109375	652.9647827148438	-501.4063720703125	-2114.26806640625	727.2085571289062	-208.6538543701172	-2661.74560546875	100.9481048583984	-443.7564697265625	-2188.607421875	705.7003173828125	-207.6690826416016	-2087.005615234375	631.358642578125	-228.8343505859375	-2164.559814453125	613.6043701171875	-223.7676086425781	-2394.859130859375	585.3455810546875	-507.2744750976562	-2124.9609375	571.8064575195312	-225.2829895019531	-2466.466552734375	470.878173828125	-517.262451171875	-2535.3388671875	397.7290344238281	-512.69775390625	-2086.63134765625	452.0163879394531	-217.7820892333984	-2701.44287109375	149.4181365966797	-494.626953125	-2166.450927734375	446.8424987792969	-212.4772796630859	-2720.743408203125	333.1643371582031	-398.7975158691406	-2079.320068359375	350.5317077636719	-227.4774322509766	-2160.28662109375	348.1416625976562	-224.8671112060547	-2684.2685546875	291.5534362792969	-487.9366455078125	-2097.859619140625	157.1888580322266	-254.9255523681641	-1909.973754882812	179.417236328125	-264.754638671875	-2151.51611328125	129.7694702148438	-319.0841979980469	-2122.2900390625	107.6515121459961	-347.0525817871094	-2139.38427734375	97.8313446044922	-293.6681213378906	-2737.599365234375	336.9508972167969	-451.2864379882812
4	0.015	-2171.965576171875	1536.672119140625	-521.5277709960938	-2224.4765625	1521.498413085938	-228.1508178710938	-2215.36083984375	1065.768310546875	-516.1239624023438	-2213.76123046875	1059.53173828125	-219.4923858642578	-2166.26123046875	1011.656860351562	-502.5598449707031	-2689.347900390625	353.4716796875	-426.6513366699219	-2157.009521484375	1011.230163574219	-248.9875183105469	-2313.5390625	961.93505859375	-519.2291259765625	-2286.73095703125	954.1041259765624	-204.4454803466797	-2312.4736328125	1105.897705078125	-372.0654296875	-2271.40283203125	717.4876708984375	-524.4292602539062	-2576.344970703125	456.3874206542969	-509.4932861328125	-2349.917724609375	743.9623413085938	-525.3816528320312	-2304.503662109375	620.7862548828125	-508.4842224121094	-1954.916137695312	138.8196411132812	-216.2477722167969	-2506.67724609375	526.2075805664062	-520.7686767578125	-2384.211669921875	651.5534057617188	-502.1417236328125	-2100.17138671875	723.331298828125	-208.3439483642578	-2652.728515625	106.8979644775391	-445.608154296875	-2174.216064453125	702.4024047851562	-207.21435546875	-2073.13330078125	627.8803100585938	-228.6847229003906	-2150.82470703125	610.8446655273438	-224.1211547851562	-2377.268798828125	584.1414794921875	-507.8963623046875	-2111.305419921875	568.77734375	-226.2487945556641	-2451.55712890625	470.8420104980469	-517.8536376953125	-2522.3291015625	399.7534790039062	-513.1196899414062	-2069.26171875	451.7999877929688	-218.7976684570312	-2690.72216796875	155.7237548828125	-496.2558288574219	-2148.409912109375	443.6007080078125	-212.1455841064453	-2709.66259765625	337.8710632324219	-398.016845703125	-2059.65966796875	350.2067565917969	-227.9777679443359	-2141.2392578125	345.7777099609375	-225.3603820800781	-2673.796630859375	297.2145690917969	-487.9434204101562	-2073.926513671875	155.8921356201172	-255.8035125732422	-1886.895385742188	183.7004089355469	-265.8224487304688	-2126.917724609375	126.3105926513672	-320.1283569335938	-2096.4921875	106.0945205688477	-347.7698669433594	-2114.45263671875	95.57571411132812	-294.7745056152344	-2725.9462890625	341.9071350097656	-450.7315673828125
